<svg width="30" height="30" viewBox="0 0 30 30" fill="none" xmlns="http://www.w3.org/2000/svg">
<g id="Help">
<path id="Vector" fill-rule="evenodd" clip-rule="evenodd" d="M4.5 15C4.5 9.204 9.1935 4.5 14.9895 4.5C20.796 4.5 25.5 9.204 25.5 15C25.5 20.796 20.796 25.5 14.9895 25.5C9.1935 25.5 4.5 20.796 4.5 15ZM14 22.5V20.5H16V22.5H14ZM16 16.5L15.9943 17.5L15.9886 18.5H13.9886C13.9886 18.5 13.9771 17.5 13.9886 16.5C14 15.5 14.9886 14.5 14.9886 14.5C14.9886 14.5 15.5959 13.8839 15.9886 13.5C16.5 13 17 12.5 17 12C17 11.5 16.8114 10 15 10C13.1886 10 12.9886 12 12.9886 12L10.9885 12C10.9885 10.5 11.8508 8 14.9886 7.99999C17.4885 7.99999 19 10 19 11.5C19 12.272 18.7351 12.9116 18.4098 13.4187C18 14 17 15 17 15C17 15 16 15.9111 16 16.5Z" fill="#93BCD7"/>
</g>
</svg>
