<svg width="29" height="29" viewBox="0 0 29 29" fill="none" xmlns="http://www.w3.org/2000/svg">
<path fill-rule="evenodd" clip-rule="evenodd" d="M4 14.5C4 8.704 8.6935 4 14.4895 4C20.296 4 25 8.704 25 14.5C25 20.296 20.296 25 14.4895 25C8.6935 25 4 20.296 4 14.5ZM13.5 22V20H15.5V22H13.5ZM15.5 16L15.4943 17L15.4886 18H13.4886C13.4886 18 13.4771 17 13.4886 16C13.5 15 14.4886 14 14.4886 14C14.4886 14 15.0959 13.3839 15.4886 13C16 12.5 16.5 12 16.5 11.5C16.5 11 16.3114 9.5 14.5 9.5C12.6886 9.5 12.4886 11.5 12.4886 11.5L10.4885 11.5C10.4885 10 11.3508 7.5 14.4886 7.49999C16.9885 7.49999 18.5 9.5 18.5 11C18.5 11.772 18.2351 12.4116 17.9098 12.9187C17.5 13.5 16.5 14.5 16.5 14.5C16.5 14.5 15.5 15.4111 15.5 16Z" fill="#93BCD7"/>
</svg>
